<svg width="124" height="32" viewBox="0 0 124 32" fill="none" xmlns="http://www.w3.org/2000/svg">
<g clip-path="url(#clip0_54797_25491)">
<path d="M8.66669 21.3846C9.8308 21.3846 10.9629 21.5184 12.0629 21.7859C13.1629 22.0534 14.253 22.4889 15.3334 23.0923V10.0103C14.371 9.32308 13.3103 8.80769 12.1513 8.46409C10.9923 8.12051 9.8308 7.94872 8.66669 7.94872C7.86669 7.94872 7.16625 7.99658 6.56539 8.09229C5.96454 8.18802 5.29745 8.3658 4.56412 8.62562C4.35899 8.694 4.21369 8.79229 4.12822 8.92049C4.04275 9.04871 4.00002 9.18974 4.00002 9.34359V21.3641C4.00002 21.6034 4.08549 21.7786 4.25642 21.8897C4.42738 22.0008 4.61541 22.0137 4.82052 21.9282C5.3077 21.7641 5.87052 21.6325 6.50899 21.5333C7.14745 21.4342 7.86669 21.3846 8.66669 21.3846ZM16.6667 23.0923C17.747 22.4889 18.8372 22.0534 19.9372 21.7859C21.0372 21.5184 22.1692 21.3846 23.3334 21.3846C24.1334 21.3846 24.8526 21.4342 25.4911 21.5333C26.1295 21.6325 26.6923 21.7641 27.1795 21.9282C27.3846 22.0137 27.5727 22.0008 27.7436 21.8897C27.9146 21.7786 28 21.6034 28 21.3641V9.34359C28 9.18974 27.9573 9.05299 27.8718 8.93332C27.7864 8.81366 27.6411 8.71109 27.4359 8.62562C26.7026 8.3658 26.0355 8.18802 25.4347 8.09229C24.8338 7.99658 24.1334 7.94872 23.3334 7.94872C22.1692 7.94872 21.0077 8.12051 19.8488 8.46409C18.6898 8.80769 17.6291 9.32308 16.6667 10.0103V23.0923ZM16 25.0257C14.9163 24.2838 13.7522 23.7137 12.5077 23.3154C11.2633 22.9171 9.98293 22.718 8.66669 22.718C7.97266 22.718 7.29104 22.7761 6.62182 22.8923C5.95258 23.0085 5.30086 23.1949 4.66669 23.4513C4.18293 23.6444 3.72865 23.5863 3.30385 23.2769C2.87908 22.9675 2.66669 22.5402 2.66669 21.9949V9.10769C2.66669 8.77776 2.75343 8.47177 2.92692 8.18972C3.10043 7.90768 3.3436 7.7111 3.65642 7.59999C4.43933 7.25468 5.25386 7.00425 6.10002 6.84869C6.94618 6.69313 7.80173 6.61536 8.66669 6.61536C9.97266 6.61536 11.2466 6.80339 12.4885 7.17946C13.7304 7.55552 14.9009 8.10253 16 8.82049C17.0992 8.10253 18.2697 7.55552 19.5116 7.17946C20.7534 6.80339 22.0274 6.61536 23.3334 6.61536C24.1983 6.61536 25.0539 6.69313 25.9 6.84869C26.7462 7.00425 27.5607 7.25468 28.3436 7.59999C28.6564 7.7111 28.8996 7.90768 29.0731 8.18972C29.2466 8.47177 29.3334 8.77776 29.3334 9.10769V21.9949C29.3334 22.5402 29.1039 22.959 28.6449 23.2513C28.1859 23.5436 27.6975 23.5932 27.1795 23.4C26.5624 23.1607 25.9321 22.9872 25.2885 22.8795C24.6449 22.7718 23.9932 22.718 23.3334 22.718C22.0171 22.718 20.7368 22.9171 19.4923 23.3154C18.2479 23.7137 17.0838 24.2838 16 25.0257Z" fill="black"/>
<path d="M40.368 19.62C40.3867 19.6947 40.396 19.8067 40.396 19.956C40.396 20.0867 40.368 20.2267 40.312 20.376C40.256 20.5067 40.172 20.628 40.06 20.74C39.9667 20.8333 39.8267 20.88 39.64 20.88C39.2293 20.6187 38.884 20.2733 38.604 19.844C38.4547 19.284 38.3147 18.64 38.184 17.912C38.072 17.184 37.9787 16.428 37.904 15.644C37.8293 14.8413 37.7733 14.0293 37.736 13.208C37.7173 12.3867 37.7173 11.5933 37.736 10.828C37.736 10.6973 37.7453 10.5293 37.764 10.324C37.8013 10.1187 37.8573 9.92267 37.932 9.736C38.0067 9.53067 38.1 9.36267 38.212 9.232C38.324 9.08267 38.4827 9.008 38.688 9.008C38.9307 9.008 39.1267 9.08267 39.276 9.232C39.4253 9.38133 39.5 9.624 39.5 9.96C39.4813 10.7067 39.4813 11.5093 39.5 12.368C39.5373 13.208 39.5933 14.0573 39.668 14.916C39.7427 15.7747 39.836 16.6147 39.948 17.436C40.0787 18.2387 40.2187 18.9667 40.368 19.62ZM54.5349 10.856C52.6122 10.7627 50.7642 10.912 48.9909 11.304C47.2176 11.696 45.4629 12.228 43.7269 12.9C43.2789 13.068 42.9336 13.0493 42.6909 12.844C42.4669 12.6387 42.3549 12.4333 42.3549 12.228C42.4856 11.8733 42.7189 11.584 43.0549 11.36C46.8816 9.49333 50.7082 8.80267 54.5349 9.288C54.7216 9.344 54.8709 9.484 54.9829 9.708C55.1136 9.91333 55.1602 10.0907 55.1229 10.24C55.0856 10.4267 55.0296 10.5853 54.9549 10.716C54.8802 10.828 54.7402 10.8747 54.5349 10.856ZM50.5589 20.628C50.5589 20.8333 50.4842 21.02 50.3349 21.188C50.2042 21.3373 50.0362 21.4307 49.8309 21.468C49.4576 21.524 49.2149 21.4587 49.1029 21.272C48.9909 21.0853 48.9256 20.8707 48.9069 20.628C48.8882 19.3213 48.8602 18.024 48.8229 16.736C48.8042 15.4293 48.7482 14.1227 48.6549 12.816C48.6549 12.7413 48.6456 12.6573 48.6269 12.564C48.6082 12.452 48.6082 12.3493 48.6269 12.256C48.6456 12.144 48.6829 12.0507 48.7389 11.976C48.8136 11.9013 48.9256 11.8453 49.0749 11.808C49.5042 11.7333 49.8122 11.808 49.9989 12.032C50.1856 12.2373 50.2789 12.4427 50.2789 12.648C50.4282 13.992 50.5216 15.3267 50.5589 16.652C50.5962 17.9773 50.5962 19.3027 50.5589 20.628ZM67.7632 22.28C67.5765 22.2053 67.3805 22.0653 67.1752 21.86C66.9885 21.6547 66.8765 21.4773 66.8392 21.328C66.7458 20.9547 66.6432 20.4973 66.5312 19.956C66.4192 19.4147 66.3072 18.836 66.1952 18.22C66.0832 17.604 65.9712 16.9787 65.8592 16.344C65.7658 15.6907 65.6725 15.0747 65.5792 14.496C65.4858 13.8987 65.4112 13.3667 65.3552 12.9C65.2992 12.4333 65.2618 12.06 65.2432 11.78C65.2432 11.4813 65.3458 11.3133 65.5512 11.276C66.0365 11.22 66.3818 11.3973 66.5872 11.808C66.6805 12.144 66.7832 12.5267 66.8952 12.956C67.0072 13.3853 67.1192 13.852 67.2312 14.356C67.6792 14.188 68.0805 13.9733 68.4352 13.712C68.7898 13.4507 69.0792 13.1707 69.3032 12.872C69.5458 12.5547 69.7138 12.2373 69.8072 11.92C69.9192 11.584 69.9378 11.2573 69.8632 10.94C69.7698 10.5853 69.5085 10.324 69.0792 10.156C68.6498 9.988 68.1645 9.904 67.6232 9.904C66.8765 9.904 66.2045 10.044 65.6072 10.324C65.0285 10.5853 64.4965 10.912 64.0112 11.304C63.7872 11.472 63.5445 11.528 63.2832 11.472C63.0032 11.3973 62.8165 11.22 62.7232 10.94C62.7232 10.6787 62.7698 10.4547 62.8632 10.268C62.9565 10.0813 63.0778 9.91333 63.2272 9.764C63.8058 9.16667 64.4872 8.74667 65.2712 8.504C66.0738 8.26133 66.9138 8.14 67.7912 8.14C68.5005 8.14 69.1818 8.252 69.8352 8.476C70.5072 8.7 71.0765 9.10133 71.5432 9.68C71.7672 10.0533 71.8792 10.4453 71.8792 10.856C71.8978 11.2667 71.8418 11.668 71.7112 12.06C71.5805 12.452 71.3938 12.8253 71.1512 13.18C70.9272 13.5347 70.6938 13.8427 70.4512 14.104C70.9178 14.0667 71.3938 14.1133 71.8792 14.244C72.3645 14.356 72.7938 14.5613 73.1672 14.86C73.5592 15.14 73.8765 15.5133 74.1192 15.98C74.3618 16.4467 74.4832 17.0067 74.4832 17.66C74.4832 18.4067 74.3152 19.088 73.9792 19.704C73.6618 20.32 73.2325 20.8427 72.6912 21.272C72.1685 21.7013 71.5618 22.0373 70.8712 22.28C70.1992 22.5227 69.4992 22.644 68.7712 22.644C68.4538 22.644 68.2018 22.5507 68.0152 22.364C67.9218 22.364 67.8378 22.336 67.7632 22.28ZM67.6512 16.4C67.8005 17.128 67.9405 17.884 68.0712 18.668C68.2018 19.452 68.3418 20.236 68.4912 21.02H68.6032C69.0138 21.02 69.4618 20.9453 69.9472 20.796C70.4512 20.6467 70.9178 20.432 71.3472 20.152C71.7765 19.8533 72.1312 19.4987 72.4112 19.088C72.6912 18.6587 72.8218 18.1827 72.8032 17.66C72.7098 17.1933 72.4952 16.8387 72.1592 16.596C71.8232 16.3533 71.4125 16.1947 70.9272 16.12C70.4605 16.0453 69.9378 16.0453 69.3592 16.12C68.7992 16.176 68.2298 16.2693 67.6512 16.4ZM86.1603 16.092C86.0483 16.6147 85.8429 17.1187 85.5443 17.604C85.2643 18.0707 84.9376 18.5093 84.5643 18.92C84.1909 19.3307 83.7803 19.6853 83.3323 19.984C82.9029 20.2827 82.4643 20.516 82.0163 20.684C81.1949 20.9827 80.3736 21.0853 79.5523 20.992C78.7496 20.88 78.0309 20.5067 77.3963 19.872C76.9669 19.3493 76.6589 18.7613 76.4723 18.108C76.3043 17.4547 76.2203 16.792 76.2203 16.12C76.2389 15.4293 76.3323 14.7667 76.5003 14.132C76.6869 13.4973 76.9203 12.928 77.2003 12.424C77.5363 11.8267 77.9376 11.332 78.4043 10.94C78.8709 10.548 79.3843 10.3147 79.9443 10.24C80.0936 10.2027 80.2149 10.24 80.3083 10.352C80.4016 10.464 80.4483 10.5947 80.4483 10.744C80.6349 10.5573 80.9243 10.4173 81.3163 10.324C81.7083 10.2307 82.1469 10.2213 82.6323 10.296C83.5283 10.408 84.2376 10.6787 84.7603 11.108C85.2829 11.5373 85.6656 12.0413 85.9083 12.62C86.1696 13.18 86.3003 13.7773 86.3003 14.412C86.3189 15.028 86.2723 15.588 86.1603 16.092ZM80.0563 12.228C79.6829 12.396 79.3656 12.648 79.1043 12.984C78.8616 13.3013 78.6563 13.6653 78.4883 14.076C78.3389 14.4867 78.2363 14.9347 78.1803 15.42C78.1429 15.8867 78.1429 16.344 78.1803 16.792C78.2363 17.4453 78.4323 17.9867 78.7683 18.416C79.1043 18.8267 79.6269 19.032 80.3363 19.032C80.7469 19.032 81.1483 18.9573 81.5403 18.808C81.9509 18.64 82.3243 18.4253 82.6603 18.164C82.9963 17.9027 83.3043 17.5947 83.5843 17.24C83.8643 16.8667 84.0883 16.484 84.2563 16.092C84.3496 15.8867 84.4243 15.6347 84.4803 15.336C84.5363 15.0187 84.5549 14.7013 84.5363 14.384C84.5176 14.048 84.4429 13.7307 84.3123 13.432C84.1816 13.1333 83.9763 12.8813 83.6963 12.676C83.3043 12.396 82.8376 12.228 82.2963 12.172C81.7549 12.116 81.1856 12.2373 80.5883 12.536C80.4763 12.6107 80.3456 12.6293 80.1963 12.592C80.0656 12.536 80.0189 12.4147 80.0563 12.228ZM98.4649 16.092C98.3529 16.6147 98.1476 17.1187 97.8489 17.604C97.5689 18.0707 97.2423 18.5093 96.8689 18.92C96.4956 19.3307 96.0849 19.6853 95.6369 19.984C95.2076 20.2827 94.7689 20.516 94.3209 20.684C93.4996 20.9827 92.6783 21.0853 91.8569 20.992C91.0543 20.88 90.3356 20.5067 89.7009 19.872C89.2716 19.3493 88.9636 18.7613 88.7769 18.108C88.6089 17.4547 88.5249 16.792 88.5249 16.12C88.5436 15.4293 88.6369 14.7667 88.8049 14.132C88.9916 13.4973 89.2249 12.928 89.5049 12.424C89.8409 11.8267 90.2423 11.332 90.7089 10.94C91.1756 10.548 91.6889 10.3147 92.2489 10.24C92.3983 10.2027 92.5196 10.24 92.6129 10.352C92.7063 10.464 92.7529 10.5947 92.7529 10.744C92.9396 10.5573 93.2289 10.4173 93.6209 10.324C94.0129 10.2307 94.4516 10.2213 94.9369 10.296C95.8329 10.408 96.5423 10.6787 97.0649 11.108C97.5876 11.5373 97.9703 12.0413 98.2129 12.62C98.4743 13.18 98.6049 13.7773 98.6049 14.412C98.6236 15.028 98.5769 15.588 98.4649 16.092ZM92.3609 12.228C91.9876 12.396 91.6703 12.648 91.4089 12.984C91.1663 13.3013 90.9609 13.6653 90.7929 14.076C90.6436 14.4867 90.5409 14.9347 90.4849 15.42C90.4476 15.8867 90.4476 16.344 90.4849 16.792C90.5409 17.4453 90.7369 17.9867 91.0729 18.416C91.4089 18.8267 91.9316 19.032 92.6409 19.032C93.0516 19.032 93.4529 18.9573 93.8449 18.808C94.2556 18.64 94.6289 18.4253 94.9649 18.164C95.3009 17.9027 95.6089 17.5947 95.8889 17.24C96.1689 16.8667 96.3929 16.484 96.5609 16.092C96.6543 15.8867 96.7289 15.6347 96.7849 15.336C96.8409 15.0187 96.8596 14.7013 96.8409 14.384C96.8223 14.048 96.7476 13.7307 96.6169 13.432C96.4863 13.1333 96.2809 12.8813 96.0009 12.676C95.6089 12.396 95.1423 12.228 94.6009 12.172C94.0596 12.116 93.4903 12.2373 92.8929 12.536C92.7809 12.6107 92.6503 12.6293 92.5009 12.592C92.3703 12.536 92.3236 12.4147 92.3609 12.228ZM102.426 10.1C102.519 10.7347 102.622 11.3973 102.734 12.088C102.846 12.76 102.958 13.488 103.07 14.272C103.928 13.7307 104.824 13.1893 105.758 12.648C106.71 12.088 107.596 11.64 108.418 11.304C108.492 11.2853 108.586 11.2853 108.698 11.304C108.828 11.304 108.959 11.332 109.09 11.388C109.22 11.4253 109.332 11.4813 109.426 11.556C109.519 11.6307 109.584 11.724 109.622 11.836C109.659 11.9667 109.631 12.144 109.538 12.368C109.444 12.5733 109.342 12.6947 109.23 12.732C109.006 12.8627 108.707 13.04 108.334 13.264C107.979 13.4693 107.596 13.6933 107.186 13.936C106.794 14.1787 106.402 14.4213 106.01 14.664C105.636 14.9067 105.319 15.112 105.058 15.28C106.122 15.8587 107.158 16.3533 108.166 16.764C109.192 17.1747 110.275 17.5107 111.414 17.772C111.526 17.7907 111.638 17.8653 111.75 17.996C111.88 18.108 111.983 18.248 112.058 18.416C112.132 18.584 112.17 18.752 112.17 18.92C112.188 19.088 112.151 19.2373 112.058 19.368C111.946 19.5173 111.787 19.6107 111.582 19.648C111.395 19.6667 111.199 19.6573 110.994 19.62C109.575 19.284 108.278 18.8733 107.102 18.388C105.926 17.884 104.694 17.2773 103.406 16.568C103.499 17.3707 103.583 18.2013 103.658 19.06C103.751 19.9187 103.835 20.824 103.91 21.776C103.91 21.9813 103.826 22.1027 103.658 22.14C103.49 22.1587 103.303 22.1493 103.098 22.112C102.892 22.0747 102.706 22.0093 102.538 21.916C102.37 21.8227 102.267 21.7293 102.23 21.636C102.118 20.7773 101.996 19.872 101.866 18.92C101.754 17.968 101.623 17.0067 101.474 16.036C101.324 15.0467 101.166 14.076 100.998 13.124C100.83 12.1533 100.662 11.2293 100.494 10.352C100.456 10.1467 100.503 9.91333 100.634 9.652C100.764 9.372 101.007 9.21333 101.362 9.176C101.492 9.176 101.614 9.21333 101.726 9.288C101.856 9.344 101.968 9.428 102.062 9.54C102.174 9.63333 102.258 9.736 102.314 9.848C102.37 9.94133 102.407 10.0253 102.426 10.1ZM120.691 10.072C120.616 10.1653 120.476 10.24 120.271 10.296C120.084 10.3333 119.888 10.2773 119.683 10.128C119.534 10.016 119.356 9.904 119.151 9.792C118.946 9.66133 118.722 9.54 118.479 9.428C118.236 9.316 117.994 9.22267 117.751 9.148C117.508 9.07333 117.275 9.036 117.051 9.036C116.771 9.036 116.472 9.10133 116.155 9.232C115.856 9.36267 115.595 9.54933 115.371 9.792C114.942 10.2587 114.783 10.716 114.895 11.164C115.026 11.5933 115.352 11.9947 115.875 12.368C116.211 12.6107 116.575 12.8627 116.967 13.124C117.359 13.3667 117.742 13.6093 118.115 13.852C118.507 14.0947 118.871 14.328 119.207 14.552C119.562 14.776 119.87 14.972 120.131 15.14C120.467 15.364 120.784 15.6067 121.083 15.868C121.382 16.1293 121.643 16.428 121.867 16.764C122.091 17.0813 122.268 17.4453 122.399 17.856C122.53 18.2667 122.595 18.7333 122.595 19.256C122.464 20.2827 122.054 21.104 121.363 21.72C120.691 22.3173 119.907 22.7 119.011 22.868C118.227 23.0173 117.452 22.9893 116.687 22.784C115.94 22.5787 115.306 22.1867 114.783 21.608C114.652 21.4587 114.54 21.2533 114.447 20.992C114.354 20.7307 114.344 20.544 114.419 20.432C114.531 20.264 114.727 20.152 115.007 20.096C115.287 20.0213 115.502 20.0307 115.651 20.124C116.08 20.516 116.584 20.8053 117.163 20.992C117.742 21.16 118.348 21.1693 118.983 21.02C119.468 20.908 119.86 20.7027 120.159 20.404C120.458 20.0867 120.644 19.732 120.719 19.34C120.812 18.9293 120.756 18.5093 120.551 18.08C120.364 17.632 120.019 17.2307 119.515 16.876C118.75 16.2973 117.928 15.756 117.051 15.252C116.192 14.748 115.315 14.1693 114.419 13.516C113.99 13.1427 113.672 12.732 113.467 12.284C113.28 11.836 113.187 11.3973 113.187 10.968C113.187 10.52 113.28 10.1 113.467 9.708C113.654 9.29733 113.915 8.93333 114.251 8.616C114.587 8.28 114.979 8.00933 115.427 7.804C115.875 7.59867 116.37 7.47733 116.911 7.44C117.658 7.40267 118.376 7.56133 119.067 7.916C119.758 8.252 120.318 8.672 120.747 9.176C120.84 9.288 120.878 9.428 120.859 9.596C120.859 9.764 120.803 9.92267 120.691 10.072Z" fill="black"/>
</g>
<defs>
<clipPath id="clip0_54797_25491">
<rect width="124" height="32" fill="white"/>
</clipPath>
</defs>
</svg>
